<?xml version="1.0" encoding="utf-8"?>
<?xml-stylesheet type="text/xsl" href="rss1.xsl"?>
<rss version="2.0" xmlns:atom="http://www.w3.org/2005/Atom" xmlns:content="http://purl.org/rss/1.0/modules/content/" xmlns:dc="http://purl.org/dc/elements/1.1/" xmlns:media="http://search.yahoo.com/mrss/">
<channel>
 <title>Getty</title>
 <link>http://www.gettyimg.com/</link>
 <atom:link href="http://www.gettyimg.com/" rel="self" type="application/rss+xml" />

 
                <item>
                <title><![CDATA[【Music Videos】PACK - Boys Like Girls - Blood And Sugar - 1080P/1440P/2160P]]></title>
                <link><![CDATA[https://sharemania.us/threads/boys-like-girls-blood-and-sugar-1080p-1440p-2160p.222405/]]></link>
                <description><![CDATA[<article>
<blockquote class="messageText SelectQuoteContainer ugc baseHtml">
<img src="https://i.imgur.com/UY94oa2.png" class="bbCodeImage LbImage" alt="[​IMG]" data-url="https://i.imgur.com/UY94oa2.png" style=""><br>
<div class="ToggleTriggerAnchor bbCodeSpoilerContainer">
<button type="button" class="button bbCodeSpoilerButton ToggleTrigger Tooltip JsOnly" data-target="> .SpoilerTarget"><span>Spoiler: <span class="SpoilerTitle">MEDIAINFO</span></span></button>
<div class="SpoilerTarget bbCodeSpoilerText">
<div class="bbCodeBlock bbCodeCode">
<div class="type">Code:</div>
<pre>General
Unique ID                      : 258694852849794721181017477428629513525 (0xC29ED0FCB8C08DF49A8D7CCA1160A535)
Format                         : Matroska
Format version                 : Version 4
File size                      : 407 MiB
Duration                       : 3 min 13 s
Overall bit rate               : 17.6 Mb/s
Movie name                     : BOYS LIKE GIRLS - BLOOD AND SUGAR
Encoded date                   : UTC 2023-06-10 11:18:07
Writing application            : mkvmerge v76.0 ('Celebration') 64-bit
Writing library                : libebml v1.4.4 + libmatroska v1.7.1

Video
ID                             : 1
Format                         : VP9
Codec ID                       : V_VP9
Duration                       : 3 min 13 s
Bit rate                       : 17.5 Mb/s
Width                          : 3 840 pixels
Height                         : 2 160 pixels
Display aspect ratio           : 16:9
Frame rate mode                : Constant
Frame rate                     : 23.976 (24000/1001) FPS
Color space                    : YUV
Bits/(Pixel*Frame)             : 0.088
Stream size                    : 404 MiB (99%)
Language                       : English
Default                        : Yes
Forced                         : No
Color range                    : Limited
Color primaries                : BT.709
Transfer characteristics       : BT.709
Matrix coefficients            : BT.709

Audio
ID                             : 2
Format                         : AAC LC
Format/Info                    : Advanced Audio Codec Low Complexity
Codec ID                       : A_AAC-2
Duration                       : 3 min 13 s
Bit rate                       : 128 kb/s
Channel(s)                     : 2 channels
Channel layout                 : L R
Sampling rate                  : 44.1 kHz
Frame rate                     : 43.066 FPS (1024 SPF)
Compression mode               : Lossy
Stream size                    : 2.95 MiB (1%)
Language                       : English
Default                        : Yes
Forced                         : No
</pre>
</div></div>
</div>
<div class="bbCodeBlock bbCodeVfcHH HiddenContent">
<div class="attribution type">Hidden Content:</div>
<blockquote>You must reply before you can see the hidden data contained here.</blockquote>
</div>
<div class="messageTextEndMarker">&nbsp;</div>
</blockquote>
</article>]]></description>
                <author><![CDATA[Matheus10]]></author>
                </item>

                
                <item>
                <title><![CDATA[【Albums (lossy)】Rihanna - The Singles (2009) [Fan Made]]]></title>
                <link><![CDATA[https://sharemania.us/threads/rihanna-the-singles-2009-fan-made.222406/]]></link>
                <description><![CDATA[<article>
<blockquote class="messageText SelectQuoteContainer ugc baseHtml">
<div style="text-align: center"><img src="https://i.postimg.cc/rwh2gVZG/capa1.jpg" class="bbCodeImage LbImage" alt="[​IMG]" data-url="https://i.postimg.cc/rwh2gVZG/capa1.jpg" style=""> <br>
<img src="https://i.postimg.cc/k5B3p0L0/capa2.jpg" class="bbCodeImage LbImage" alt="[​IMG]" data-url="https://i.postimg.cc/k5B3p0L0/capa2.jpg" style=""> <br>
<br>
<div class="bbCodeBlock bbCodeVfcHH HiddenContent">
<div class="attribution type">Hidden Content:</div>
<blockquote>You must either reply or click 'Like' to see the hidden information contained here.</blockquote>
</div></div>
<div class="messageTextEndMarker">&nbsp;</div>
</blockquote>
</article>]]></description>
                <author><![CDATA[Fan Made]]></author>
                </item>

                </channel></rss>